<?xml version="1.0" encoding="utf-8"?>
<!-- Generator: Adobe Illustrator 16.0.0, SVG Export Plug-In . SVG Version: 6.00 Build 0)  -->
<!DOCTYPE svg PUBLIC "-//W3C//DTD SVG 1.1//EN" "http://www.w3.org/Graphics/SVG/1.1/DTD/svg11.dtd">
<svg version="1.1" id="Vrstva_1" xmlns="http://www.w3.org/2000/svg" xmlns:xlink="http://www.w3.org/1999/xlink" x="0px" y="0px"
	 width="84.427px" height="35.854px" viewBox="0 0 84.427 35.854" enable-background="new 0 0 84.427 35.854" xml:space="preserve">
<g>
	<path fill="#E94F1D" d="M23.336,22.623c-0.123,0.062-0.261,0.069-0.374,0.069c-0.503,0-0.956-0.299-1.129-0.746
		c-0.097-0.246-0.087-0.517,0.028-0.762c0.133-0.284,0.394-0.507,0.715-0.612l9.007-2.766v-0.018l-9.004-2.741
		c-0.314-0.095-0.572-0.312-0.708-0.591c-0.125-0.256-0.138-0.539-0.039-0.795c0.159-0.439,0.608-0.739,1.117-0.739
		c0.133,0,0.266,0.021,0.392,0.062l8.242,2.519V9.669C20.721,2.992,11.789,0,2.748,0C1.83,0,0.915,0.036,0,0.098V35.76
		c0.912,0.053,1.83,0.094,2.743,0.094c9.046,0,17.978-2.985,28.84-9.679v-6.069L23.336,22.623z"/>
	<path fill="#E94F1D" d="M81.684,0c-9.045,0-17.978,2.986-28.841,9.677v6.072l8.245-2.518c0.125-0.062,0.26-0.071,0.376-0.071
		c0.501,0,0.956,0.299,1.129,0.747c0.097,0.248,0.084,0.519-0.03,0.764c-0.131,0.281-0.392,0.503-0.714,0.611l-9.006,2.764v0.018
		l9.002,2.74c0.314,0.097,0.575,0.312,0.711,0.594c0.122,0.256,0.137,0.537,0.038,0.794c-0.158,0.44-0.608,0.739-1.117,0.739
		c-0.132,0-0.266-0.02-0.391-0.064l-8.243-2.516v5.834c10.863,6.675,19.795,9.668,28.835,9.668c0.918,0,1.831-0.035,2.749-0.1V0.092
		C83.515,0.039,82.597,0,81.684,0z"/>
	<path fill="#E94F1D" d="M50.473,25.467c0,0.608-0.621,1.112-1.37,1.112H35.314c-0.744,0-1.36-0.504-1.36-1.112V10.206
		c0-0.601,0.616-1.107,1.36-1.107h13.789c0.749,0,1.37,0.506,1.37,1.107V25.467z"/>
</g>
</svg>
