<?xml version="1.0" encoding="utf-8"?>
<!-- Generator: Adobe Illustrator 16.0.0, SVG Export Plug-In . SVG Version: 6.00 Build 0)  -->
<!DOCTYPE svg PUBLIC "-//W3C//DTD SVG 1.1//EN" "http://www.w3.org/Graphics/SVG/1.1/DTD/svg11.dtd">
<svg version="1.1" id="Jan_Malý" xmlns="http://www.w3.org/2000/svg" xmlns:xlink="http://www.w3.org/1999/xlink" x="0px" y="0px"
	 width="32.249px" height="13.695px" viewBox="0 0 32.249 13.695" enable-background="new 0 0 32.249 13.695" xml:space="preserve">
<g>
	<path fill="#10263C" d="M8.914,8.642c-0.047,0.023-0.1,0.026-0.143,0.026c-0.193,0-0.365-0.114-0.432-0.285
		C8.303,8.289,8.307,8.186,8.35,8.092C8.4,7.983,8.5,7.898,8.623,7.858l3.441-1.057V6.795L8.625,5.748
		C8.504,5.712,8.406,5.629,8.354,5.522C8.307,5.425,8.301,5.316,8.34,5.219C8.4,5.051,8.572,4.937,8.766,4.937
		c0.051,0,0.102,0.008,0.15,0.023l3.148,0.962V3.693C7.914,1.143,4.502,0,1.049,0C0.699,0,0.35,0.014,0,0.037v13.622
		c0.348,0.021,0.699,0.036,1.047,0.036c3.455,0,6.867-1.141,11.018-3.697V7.68L8.914,8.642z"/>
	<path fill="#10263C" d="M31.201,0c-3.455,0-6.867,1.141-11.017,3.696v2.319l3.149-0.962c0.048-0.023,0.1-0.027,0.144-0.027
		c0.191,0,0.365,0.114,0.432,0.285c0.037,0.095,0.032,0.198-0.012,0.292c-0.05,0.107-0.149,0.192-0.272,0.233l-3.44,1.056v0.007
		l3.438,1.047c0.12,0.037,0.22,0.119,0.271,0.227c0.047,0.098,0.053,0.205,0.015,0.304c-0.061,0.168-0.232,0.282-0.427,0.282
		c-0.051,0-0.102-0.008-0.149-0.024l-3.148-0.961v2.229c4.149,2.55,7.562,3.693,11.015,3.693c0.351,0,0.699-0.014,1.05-0.038V0.035
		C31.9,0.015,31.55,0,31.201,0z"/>
	<path fill="#10263C" d="M19.279,9.728c0,0.232-0.237,0.425-0.523,0.425h-5.268c-0.283,0-0.52-0.192-0.52-0.425V3.898
		c0-0.229,0.236-0.423,0.52-0.423h5.268c0.286,0,0.523,0.193,0.523,0.423V9.728z"/>
</g>
</svg>
